<mxfile host="app.diagrams.net" modified="2021-08-03T11:40:12.780Z" agent="5.0 (Macintosh; Intel Mac OS X 10_15_7) AppleWebKit/537.36 (KHTML, like Gecko) Chrome/92.0.4515.107 Safari/537.36" etag="o3lpGD8zRPHDmCbZxPVJ" version="14.9.3" type="github">
  <diagram id="mbfU6HViJIE56Zg5WMge" name="Biblioteca">
    <mxGraphModel dx="946" dy="480" grid="1" gridSize="10" guides="1" tooltips="1" connect="1" arrows="1" fold="1" page="1" pageScale="1" pageWidth="827" pageHeight="1169" math="0" shadow="0">
      <root>
        <mxCell id="0" />
        <mxCell id="1" parent="0" />
        <mxCell id="XhiAWDhRi9x_qQlQQhtx-16" value="Cliente" style="text;html=1;align=center;verticalAlign=middle;whiteSpace=wrap;rounded=0;perimeterSpacing=0;strokeWidth=0;" vertex="1" parent="1">
          <mxGeometry x="605" y="240" width="40" height="20" as="geometry" />
        </mxCell>
        <mxCell id="XhiAWDhRi9x_qQlQQhtx-2" value="Gestão &lt;br&gt;da &lt;br&gt;Biblioteca" style="ellipse;whiteSpace=wrap;html=1;aspect=fixed;" vertex="1" parent="1">
          <mxGeometry x="340" y="30" width="120" height="120" as="geometry" />
        </mxCell>
        <mxCell id="XhiAWDhRi9x_qQlQQhtx-3" value="1. Gestão &lt;br&gt;de&lt;br&gt;Empréstimos" style="ellipse;whiteSpace=wrap;html=1;aspect=fixed;" vertex="1" parent="1">
          <mxGeometry x="90" y="10" width="120" height="120" as="geometry" />
        </mxCell>
        <mxCell id="XhiAWDhRi9x_qQlQQhtx-4" value="2. Gestão &lt;br&gt;de &lt;br&gt;Livros" style="ellipse;whiteSpace=wrap;html=1;aspect=fixed;" vertex="1" parent="1">
          <mxGeometry x="590" y="20" width="120" height="120" as="geometry" />
        </mxCell>
        <mxCell id="XhiAWDhRi9x_qQlQQhtx-5" value="Cliente" style="rounded=0;whiteSpace=wrap;html=1;" vertex="1" parent="1">
          <mxGeometry x="20" y="200" width="120" height="60" as="geometry" />
        </mxCell>
        <mxCell id="XhiAWDhRi9x_qQlQQhtx-19" style="edgeStyle=orthogonalEdgeStyle;rounded=0;orthogonalLoop=1;jettySize=auto;html=1;entryX=0.5;entryY=0;entryDx=0;entryDy=0;" edge="1" parent="1" source="XhiAWDhRi9x_qQlQQhtx-6" target="XhiAWDhRi9x_qQlQQhtx-10">
          <mxGeometry relative="1" as="geometry" />
        </mxCell>
        <mxCell id="XhiAWDhRi9x_qQlQQhtx-6" value="1.1 Receção&lt;br&gt;Cliente" style="ellipse;whiteSpace=wrap;html=1;aspect=fixed;" vertex="1" parent="1">
          <mxGeometry x="335" y="210" width="80" height="80" as="geometry" />
        </mxCell>
        <mxCell id="XhiAWDhRi9x_qQlQQhtx-7" value="" style="endArrow=classic;html=1;entryX=0.038;entryY=0.288;entryDx=0;entryDy=0;exitX=1;exitY=0.5;exitDx=0;exitDy=0;startArrow=none;entryPerimeter=0;" edge="1" parent="1" source="XhiAWDhRi9x_qQlQQhtx-8" target="XhiAWDhRi9x_qQlQQhtx-6">
          <mxGeometry width="50" height="50" relative="1" as="geometry">
            <mxPoint x="175" y="230" as="sourcePoint" />
            <mxPoint x="225" y="180" as="targetPoint" />
          </mxGeometry>
        </mxCell>
        <mxCell id="XhiAWDhRi9x_qQlQQhtx-8" value="Cartão Cliente" style="text;html=1;strokeColor=none;fillColor=none;align=center;verticalAlign=middle;whiteSpace=wrap;rounded=0;rotation=0;" vertex="1" parent="1">
          <mxGeometry x="200" y="220" width="90" height="20" as="geometry" />
        </mxCell>
        <mxCell id="XhiAWDhRi9x_qQlQQhtx-9" value="" style="endArrow=none;html=1;entryX=0;entryY=0.5;entryDx=0;entryDy=0;exitX=1;exitY=0.5;exitDx=0;exitDy=0;" edge="1" parent="1" source="XhiAWDhRi9x_qQlQQhtx-5" target="XhiAWDhRi9x_qQlQQhtx-8">
          <mxGeometry width="50" height="50" relative="1" as="geometry">
            <mxPoint x="165" y="180" as="sourcePoint" />
            <mxPoint x="335" y="250" as="targetPoint" />
          </mxGeometry>
        </mxCell>
        <mxCell id="XhiAWDhRi9x_qQlQQhtx-10" value="1.2 Pesquisa&lt;br&gt;Livro" style="ellipse;whiteSpace=wrap;html=1;aspect=fixed;" vertex="1" parent="1">
          <mxGeometry x="335" y="410" width="80" height="80" as="geometry" />
        </mxCell>
        <mxCell id="XhiAWDhRi9x_qQlQQhtx-12" value="Dados do cliente" style="text;html=1;strokeColor=none;fillColor=none;align=center;verticalAlign=middle;whiteSpace=wrap;rounded=0;rotation=-90;" vertex="1" parent="1">
          <mxGeometry x="315" y="335" width="100" height="20" as="geometry" />
        </mxCell>
        <mxCell id="XhiAWDhRi9x_qQlQQhtx-15" value="" style="endArrow=classic;startArrow=classic;html=1;" edge="1" parent="1" target="XhiAWDhRi9x_qQlQQhtx-16">
          <mxGeometry width="50" height="50" relative="1" as="geometry">
            <mxPoint x="415" y="250" as="sourcePoint" />
            <mxPoint x="495" y="310" as="targetPoint" />
            <Array as="points" />
          </mxGeometry>
        </mxCell>
        <mxCell id="XhiAWDhRi9x_qQlQQhtx-17" value="" style="endArrow=classic;startArrow=classic;html=1;" edge="1" parent="1" target="XhiAWDhRi9x_qQlQQhtx-18">
          <mxGeometry width="50" height="50" relative="1" as="geometry">
            <mxPoint x="335" y="450" as="sourcePoint" />
            <mxPoint x="525" y="410" as="targetPoint" />
          </mxGeometry>
        </mxCell>
        <mxCell id="XhiAWDhRi9x_qQlQQhtx-18" value="Livro" style="text;html=1;align=center;verticalAlign=middle;whiteSpace=wrap;rounded=0;strokeWidth=1;glass=0;shadow=0;sketch=0;labelBorderColor=none;spacingTop=0;spacingBottom=0;" vertex="1" parent="1">
          <mxGeometry x="230" y="410" width="40" height="20" as="geometry" />
        </mxCell>
        <mxCell id="XhiAWDhRi9x_qQlQQhtx-20" value="" style="endArrow=classic;html=1;exitX=0;exitY=1;exitDx=0;exitDy=0;entryX=1;entryY=0.5;entryDx=0;entryDy=0;" edge="1" parent="1" source="XhiAWDhRi9x_qQlQQhtx-6" target="XhiAWDhRi9x_qQlQQhtx-21">
          <mxGeometry width="50" height="50" relative="1" as="geometry">
            <mxPoint x="175" y="350" as="sourcePoint" />
            <mxPoint x="225" y="300" as="targetPoint" />
          </mxGeometry>
        </mxCell>
        <mxCell id="XhiAWDhRi9x_qQlQQhtx-21" value="1.3 Entrega&lt;br&gt;Livro" style="ellipse;whiteSpace=wrap;html=1;aspect=fixed;" vertex="1" parent="1">
          <mxGeometry x="105" y="315" width="80" height="80" as="geometry" />
        </mxCell>
        <mxCell id="XhiAWDhRi9x_qQlQQhtx-22" value="Cliente" style="rounded=0;whiteSpace=wrap;html=1;" vertex="1" parent="1">
          <mxGeometry x="205" y="533" width="120" height="60" as="geometry" />
        </mxCell>
        <mxCell id="XhiAWDhRi9x_qQlQQhtx-23" value="" style="endArrow=classic;html=1;exitX=0.5;exitY=1;exitDx=0;exitDy=0;entryX=1;entryY=0;entryDx=0;entryDy=0;" edge="1" parent="1" source="XhiAWDhRi9x_qQlQQhtx-10">
          <mxGeometry width="50" height="50" relative="1" as="geometry">
            <mxPoint x="385" y="550" as="sourcePoint" />
            <mxPoint x="325" y="543" as="targetPoint" />
          </mxGeometry>
        </mxCell>
        <mxCell id="XhiAWDhRi9x_qQlQQhtx-24" value="Livro" style="text;html=1;strokeColor=none;fillColor=none;align=center;verticalAlign=middle;whiteSpace=wrap;rounded=0;rotation=-45;" vertex="1" parent="1">
          <mxGeometry x="305" y="513" width="100" height="20" as="geometry" />
        </mxCell>
        <mxCell id="XhiAWDhRi9x_qQlQQhtx-26" value="" style="endArrow=classic;startArrow=classic;html=1;exitX=1;exitY=1;exitDx=0;exitDy=0;entryX=0.25;entryY=0;entryDx=0;entryDy=0;" edge="1" parent="1" source="XhiAWDhRi9x_qQlQQhtx-21" target="XhiAWDhRi9x_qQlQQhtx-18">
          <mxGeometry width="50" height="50" relative="1" as="geometry">
            <mxPoint x="125" y="490" as="sourcePoint" />
            <mxPoint x="175" y="440" as="targetPoint" />
          </mxGeometry>
        </mxCell>
        <mxCell id="XhiAWDhRi9x_qQlQQhtx-27" value="" style="endArrow=classic;html=1;entryX=0;entryY=0.5;entryDx=0;entryDy=0;exitX=0.5;exitY=1;exitDx=0;exitDy=0;" edge="1" parent="1" source="XhiAWDhRi9x_qQlQQhtx-21">
          <mxGeometry width="50" height="50" relative="1" as="geometry">
            <mxPoint x="155" y="530" as="sourcePoint" />
            <mxPoint x="205" y="573" as="targetPoint" />
          </mxGeometry>
        </mxCell>
        <mxCell id="XhiAWDhRi9x_qQlQQhtx-28" value="Comprovativo" style="text;html=1;strokeColor=none;fillColor=none;align=center;verticalAlign=middle;whiteSpace=wrap;rounded=0;rotation=75;" vertex="1" parent="1">
          <mxGeometry x="175" y="480" width="40" height="20" as="geometry" />
        </mxCell>
        <mxCell id="XhiAWDhRi9x_qQlQQhtx-29" value="Valida / Altera Cliente" style="text;html=1;strokeColor=none;fillColor=none;align=center;verticalAlign=middle;whiteSpace=wrap;rounded=0;" vertex="1" parent="1">
          <mxGeometry x="445" y="230" width="140" height="20" as="geometry" />
        </mxCell>
        <mxCell id="XhiAWDhRi9x_qQlQQhtx-31" value="" style="endArrow=none;html=1;exitX=1;exitY=0.5;exitDx=0;exitDy=0;entryX=0;entryY=0.5;entryDx=0;entryDy=0;" edge="1" parent="1" source="XhiAWDhRi9x_qQlQQhtx-3" target="XhiAWDhRi9x_qQlQQhtx-2">
          <mxGeometry width="50" height="50" relative="1" as="geometry">
            <mxPoint x="270" y="260" as="sourcePoint" />
            <mxPoint x="290" y="90" as="targetPoint" />
          </mxGeometry>
        </mxCell>
        <mxCell id="XhiAWDhRi9x_qQlQQhtx-32" value="" style="endArrow=none;html=1;exitX=0;exitY=0.5;exitDx=0;exitDy=0;entryX=1;entryY=0.5;entryDx=0;entryDy=0;" edge="1" parent="1" source="XhiAWDhRi9x_qQlQQhtx-4" target="XhiAWDhRi9x_qQlQQhtx-2">
          <mxGeometry width="50" height="50" relative="1" as="geometry">
            <mxPoint x="500" y="170" as="sourcePoint" />
            <mxPoint x="620" y="330" as="targetPoint" />
          </mxGeometry>
        </mxCell>
        <mxCell id="XhiAWDhRi9x_qQlQQhtx-34" value="Contabilidade" style="rounded=0;whiteSpace=wrap;html=1;" vertex="1" parent="1">
          <mxGeometry x="615" y="303" width="120" height="60" as="geometry" />
        </mxCell>
        <mxCell id="XhiAWDhRi9x_qQlQQhtx-35" value="3.1 Faturação" style="ellipse;whiteSpace=wrap;html=1;aspect=fixed;" vertex="1" parent="1">
          <mxGeometry x="535" y="483" width="80" height="80" as="geometry" />
        </mxCell>
        <mxCell id="XhiAWDhRi9x_qQlQQhtx-36" value="" style="endArrow=classic;startArrow=classic;html=1;entryX=0;entryY=0.5;entryDx=0;entryDy=0;exitX=1;exitY=0.5;exitDx=0;exitDy=0;" edge="1" parent="1" target="XhiAWDhRi9x_qQlQQhtx-35">
          <mxGeometry width="50" height="50" relative="1" as="geometry">
            <mxPoint x="325" y="573" as="sourcePoint" />
            <mxPoint x="455" y="590" as="targetPoint" />
          </mxGeometry>
        </mxCell>
        <mxCell id="XhiAWDhRi9x_qQlQQhtx-37" value="Fatura / Pagamento" style="text;html=1;strokeColor=none;fillColor=none;align=center;verticalAlign=middle;whiteSpace=wrap;rounded=0;rotation=-15;" vertex="1" parent="1">
          <mxGeometry x="375" y="543" width="130" height="20" as="geometry" />
        </mxCell>
        <mxCell id="XhiAWDhRi9x_qQlQQhtx-38" value="" style="endArrow=classic;startArrow=none;html=1;entryX=0.5;entryY=1;entryDx=0;entryDy=0;" edge="1" parent="1" source="XhiAWDhRi9x_qQlQQhtx-39" target="XhiAWDhRi9x_qQlQQhtx-34">
          <mxGeometry width="50" height="50" relative="1" as="geometry">
            <mxPoint x="585" y="523" as="sourcePoint" />
            <mxPoint x="665" y="363" as="targetPoint" />
          </mxGeometry>
        </mxCell>
        <mxCell id="XhiAWDhRi9x_qQlQQhtx-40" value="3. Gestão&amp;nbsp;&lt;br&gt;Contabilistica" style="ellipse;whiteSpace=wrap;html=1;aspect=fixed;" vertex="1" parent="1">
          <mxGeometry x="770" y="110" width="110" height="110" as="geometry" />
        </mxCell>
        <mxCell id="XhiAWDhRi9x_qQlQQhtx-41" value="" style="endArrow=none;html=1;entryX=0;entryY=0.5;entryDx=0;entryDy=0;exitX=0.5;exitY=1;exitDx=0;exitDy=0;" edge="1" parent="1" source="XhiAWDhRi9x_qQlQQhtx-2" target="XhiAWDhRi9x_qQlQQhtx-40">
          <mxGeometry width="50" height="50" relative="1" as="geometry">
            <mxPoint x="560" y="420" as="sourcePoint" />
            <mxPoint x="610" y="370" as="targetPoint" />
          </mxGeometry>
        </mxCell>
        <mxCell id="XhiAWDhRi9x_qQlQQhtx-45" style="edgeStyle=orthogonalEdgeStyle;rounded=0;orthogonalLoop=1;jettySize=auto;html=1;entryX=0;entryY=0.5;entryDx=0;entryDy=0;" edge="1" parent="1" source="XhiAWDhRi9x_qQlQQhtx-42" target="XhiAWDhRi9x_qQlQQhtx-43">
          <mxGeometry relative="1" as="geometry" />
        </mxCell>
        <mxCell id="XhiAWDhRi9x_qQlQQhtx-42" value="2.1 Realização&lt;br&gt;Encomendas" style="ellipse;whiteSpace=wrap;html=1;aspect=fixed;rounded=0;shadow=0;glass=0;sketch=0;strokeColor=#000000;strokeWidth=1;fillColor=none;" vertex="1" parent="1">
          <mxGeometry x="20" y="620" width="110" height="110" as="geometry" />
        </mxCell>
        <mxCell id="XhiAWDhRi9x_qQlQQhtx-43" value="Editora" style="rounded=0;whiteSpace=wrap;html=1;shadow=0;glass=0;sketch=0;strokeColor=#000000;strokeWidth=1;fillColor=none;" vertex="1" parent="1">
          <mxGeometry x="245" y="645" width="120" height="60" as="geometry" />
        </mxCell>
        <mxCell id="XhiAWDhRi9x_qQlQQhtx-46" value="Encomenda" style="text;html=1;strokeColor=none;fillColor=none;align=center;verticalAlign=middle;whiteSpace=wrap;rounded=0;shadow=0;glass=0;sketch=0;" vertex="1" parent="1">
          <mxGeometry x="165" y="660" width="40" height="20" as="geometry" />
        </mxCell>
        <mxCell id="XhiAWDhRi9x_qQlQQhtx-47" value="2.2 Receção Encomenda" style="ellipse;whiteSpace=wrap;html=1;aspect=fixed;rounded=0;shadow=0;glass=0;sketch=0;strokeColor=#000000;strokeWidth=1;fillColor=none;" vertex="1" parent="1">
          <mxGeometry x="165" y="825" width="110" height="110" as="geometry" />
        </mxCell>
        <mxCell id="XhiAWDhRi9x_qQlQQhtx-48" value="" style="endArrow=classic;html=1;exitX=0.25;exitY=1;exitDx=0;exitDy=0;entryX=0;entryY=0;entryDx=0;entryDy=0;" edge="1" parent="1" source="XhiAWDhRi9x_qQlQQhtx-43" target="XhiAWDhRi9x_qQlQQhtx-47">
          <mxGeometry width="50" height="50" relative="1" as="geometry">
            <mxPoint x="215" y="780" as="sourcePoint" />
            <mxPoint x="265" y="730" as="targetPoint" />
          </mxGeometry>
        </mxCell>
        <mxCell id="XhiAWDhRi9x_qQlQQhtx-49" value="Livros" style="text;html=1;strokeColor=none;fillColor=none;align=center;verticalAlign=middle;whiteSpace=wrap;rounded=0;shadow=0;glass=0;sketch=0;rotation=-60;" vertex="1" parent="1">
          <mxGeometry x="225" y="750" width="40" height="20" as="geometry" />
        </mxCell>
        <mxCell id="XhiAWDhRi9x_qQlQQhtx-50" value="" style="endArrow=classic;html=1;exitX=0.683;exitY=0.983;exitDx=0;exitDy=0;entryX=0.718;entryY=0.055;entryDx=0;entryDy=0;exitPerimeter=0;entryPerimeter=0;" edge="1" parent="1" source="XhiAWDhRi9x_qQlQQhtx-43" target="XhiAWDhRi9x_qQlQQhtx-47">
          <mxGeometry width="50" height="50" relative="1" as="geometry">
            <mxPoint x="327" y="715" as="sourcePoint" />
            <mxPoint x="318.1091270347399" y="816.1091270347399" as="targetPoint" />
          </mxGeometry>
        </mxCell>
        <mxCell id="XhiAWDhRi9x_qQlQQhtx-51" value="Fatura" style="text;html=1;strokeColor=none;fillColor=none;align=center;verticalAlign=middle;whiteSpace=wrap;rounded=0;shadow=0;glass=0;sketch=0;rotation=-60;" vertex="1" parent="1">
          <mxGeometry x="275" y="760" width="40" height="20" as="geometry" />
        </mxCell>
        <mxCell id="XhiAWDhRi9x_qQlQQhtx-52" value="Encomenda" style="text;html=1;strokeColor=none;fillColor=none;align=center;verticalAlign=middle;whiteSpace=wrap;rounded=0;shadow=0;glass=0;sketch=0;" vertex="1" parent="1">
          <mxGeometry x="35" y="805" width="40" height="20" as="geometry" />
        </mxCell>
        <mxCell id="XhiAWDhRi9x_qQlQQhtx-55" value="Livro" style="text;html=1;strokeColor=none;fillColor=none;align=center;verticalAlign=middle;whiteSpace=wrap;rounded=0;shadow=0;glass=0;sketch=0;" vertex="1" parent="1">
          <mxGeometry x="35" y="930" width="40" height="20" as="geometry" />
        </mxCell>
        <mxCell id="XhiAWDhRi9x_qQlQQhtx-56" value="" style="endArrow=classic;startArrow=classic;html=1;exitX=0;exitY=0.5;exitDx=0;exitDy=0;entryX=0.5;entryY=1;entryDx=0;entryDy=0;" edge="1" parent="1" source="XhiAWDhRi9x_qQlQQhtx-47" target="XhiAWDhRi9x_qQlQQhtx-52">
          <mxGeometry width="50" height="50" relative="1" as="geometry">
            <mxPoint x="125" y="850" as="sourcePoint" />
            <mxPoint x="175" y="800" as="targetPoint" />
          </mxGeometry>
        </mxCell>
        <mxCell id="XhiAWDhRi9x_qQlQQhtx-57" value="" style="endArrow=classic;startArrow=classic;html=1;exitX=0.5;exitY=0;exitDx=0;exitDy=0;entryX=0.5;entryY=1;entryDx=0;entryDy=0;" edge="1" parent="1" source="XhiAWDhRi9x_qQlQQhtx-52" target="XhiAWDhRi9x_qQlQQhtx-42">
          <mxGeometry width="50" height="50" relative="1" as="geometry">
            <mxPoint x="157.5" y="775" as="sourcePoint" />
            <mxPoint x="82.5" y="730" as="targetPoint" />
          </mxGeometry>
        </mxCell>
        <mxCell id="XhiAWDhRi9x_qQlQQhtx-58" value="" style="endArrow=classic;startArrow=classic;html=1;exitX=1;exitY=0.5;exitDx=0;exitDy=0;entryX=0;entryY=1;entryDx=0;entryDy=0;" edge="1" parent="1" source="XhiAWDhRi9x_qQlQQhtx-55" target="XhiAWDhRi9x_qQlQQhtx-47">
          <mxGeometry width="50" height="50" relative="1" as="geometry">
            <mxPoint x="185" y="900" as="sourcePoint" />
            <mxPoint x="235" y="850" as="targetPoint" />
          </mxGeometry>
        </mxCell>
        <mxCell id="XhiAWDhRi9x_qQlQQhtx-61" value="3.1 Faturação" style="ellipse;whiteSpace=wrap;html=1;aspect=fixed;rounded=0;shadow=0;glass=0;sketch=0;strokeColor=#000000;strokeWidth=1;fillColor=none;" vertex="1" parent="1">
          <mxGeometry x="445" y="760" width="95" height="95" as="geometry" />
        </mxCell>
        <mxCell id="XhiAWDhRi9x_qQlQQhtx-62" value="" style="endArrow=classic;startArrow=classic;html=1;entryX=0.442;entryY=-0.021;entryDx=0;entryDy=0;entryPerimeter=0;" edge="1" parent="1" source="XhiAWDhRi9x_qQlQQhtx-43" target="XhiAWDhRi9x_qQlQQhtx-61">
          <mxGeometry width="50" height="50" relative="1" as="geometry">
            <mxPoint x="365" y="725" as="sourcePoint" />
            <mxPoint x="435.71067811865476" y="675" as="targetPoint" />
          </mxGeometry>
        </mxCell>
        <mxCell id="XhiAWDhRi9x_qQlQQhtx-63" value="Fatura / Pagamento" style="text;html=1;strokeColor=none;fillColor=none;align=center;verticalAlign=middle;whiteSpace=wrap;rounded=0;shadow=0;glass=0;sketch=0;rotation=30;" vertex="1" parent="1">
          <mxGeometry x="380.03999999999996" y="710" width="114.02" height="20" as="geometry" />
        </mxCell>
        <mxCell id="XhiAWDhRi9x_qQlQQhtx-64" value="" style="endArrow=classic;startArrow=classic;html=1;exitX=0.5;exitY=1;exitDx=0;exitDy=0;" edge="1" parent="1" source="XhiAWDhRi9x_qQlQQhtx-61">
          <mxGeometry width="50" height="50" relative="1" as="geometry">
            <mxPoint x="484.05999999999995" y="874.9957893290839" as="sourcePoint" />
            <mxPoint x="355" y="930" as="targetPoint" />
          </mxGeometry>
        </mxCell>
        <mxCell id="XhiAWDhRi9x_qQlQQhtx-65" value="Fatura / Pagamento" style="text;html=1;strokeColor=none;fillColor=none;align=center;verticalAlign=middle;whiteSpace=wrap;rounded=0;shadow=0;glass=0;sketch=0;rotation=-30;" vertex="1" parent="1">
          <mxGeometry x="357.99" y="880" width="114.02" height="20" as="geometry" />
        </mxCell>
        <mxCell id="XhiAWDhRi9x_qQlQQhtx-66" value="Contabilidade" style="rounded=0;whiteSpace=wrap;html=1;shadow=0;glass=0;sketch=0;strokeColor=#000000;strokeWidth=1;fillColor=none;" vertex="1" parent="1">
          <mxGeometry x="305" y="930" width="100" height="30" as="geometry" />
        </mxCell>
        <mxCell id="XhiAWDhRi9x_qQlQQhtx-67" value="" style="endArrow=classic;html=1;exitX=1;exitY=0.5;exitDx=0;exitDy=0;entryX=0;entryY=0.5;entryDx=0;entryDy=0;" edge="1" parent="1" source="XhiAWDhRi9x_qQlQQhtx-47" target="XhiAWDhRi9x_qQlQQhtx-61">
          <mxGeometry width="50" height="50" relative="1" as="geometry">
            <mxPoint x="275" y="930" as="sourcePoint" />
            <mxPoint x="325" y="880" as="targetPoint" />
          </mxGeometry>
        </mxCell>
        <mxCell id="XhiAWDhRi9x_qQlQQhtx-68" value="Fatura" style="text;html=1;strokeColor=none;fillColor=none;align=center;verticalAlign=middle;whiteSpace=wrap;rounded=0;shadow=0;glass=0;sketch=0;rotation=-30;" vertex="1" parent="1">
          <mxGeometry x="325" y="825" width="40" height="20" as="geometry" />
        </mxCell>
        <mxCell id="XhiAWDhRi9x_qQlQQhtx-39" value="Fatura / Pagamento" style="text;html=1;strokeColor=none;fillColor=none;align=center;verticalAlign=middle;whiteSpace=wrap;rounded=0;rotation=15;" vertex="1" parent="1">
          <mxGeometry x="575" y="413" width="130" height="20" as="geometry" />
        </mxCell>
        <mxCell id="XhiAWDhRi9x_qQlQQhtx-69" value="" style="endArrow=none;startArrow=classic;html=1;entryX=0.5;entryY=1;entryDx=0;entryDy=0;exitX=1;exitY=0;exitDx=0;exitDy=0;" edge="1" parent="1" source="XhiAWDhRi9x_qQlQQhtx-35" target="XhiAWDhRi9x_qQlQQhtx-39">
          <mxGeometry width="50" height="50" relative="1" as="geometry">
            <mxPoint x="603.2842712474621" y="494.71572875253787" as="sourcePoint" />
            <mxPoint x="665" y="363" as="targetPoint" />
          </mxGeometry>
        </mxCell>
      </root>
    </mxGraphModel>
  </diagram>
</mxfile>
